<?xml version="1.0" encoding="utf-8"?>
<!-- Generator: Adobe Illustrator 24.3.0, SVG Export Plug-In . SVG Version: 6.00 Build 0)  -->
<svg version="1.1" id="Capa_1" xmlns="http://www.w3.org/2000/svg" xmlns:xlink="http://www.w3.org/1999/xlink" x="0px" y="0px"
	 viewBox="0 0 500 500" style="enable-background:new 0 0 500 500;" xml:space="preserve">
<style type="text/css">
	.st0{fill:#008266;}
</style>
<g>
	<path id="path3796_1_" class="st0" d="M283,179.5c-0.7,1-1.6,1.4-2.5,1.8c-3.1,1-6,1.5-9.7,1.9c-5.6,0.6-11.7,1.7-17.2,2.8
		c-7.1,1.4-14,3.4-20.9,5.5c-6.2,1.9-12.4,4-18.5,6.4c-5.8,2.2-11.4,4.8-17,7.4c-4.7,2.3-9.4,4.7-13.9,7.2
		c-4.7,2.6-9.3,5.4-13.8,8.3c-5.1,3.3-10.1,6.8-15.1,10.4c-2.9,2.1-5.8,4.1-8.5,6.4c-1.8,1.5-1.7,1.7-4.1,3.3
		c-1.8,1.2-4.1,1-6.1,0.1c-2.1-0.9-5.5-2.8-5.5-2.8s4.1-2.9,7.3-5c-0.1,0-0.1,0-0.2,0.1c-2.1,0.3-4.7-0.5-6.8-0.7
		c-1.2-0.2-2.5-0.2-3.8-0.2c-2.7,0.1-5.4,0.7-8.1,1.2c-13.2,2.5-26.5,5.1-39.4,8.6c-9.3,2.5-18.6,5.4-27.5,9c-3,1.2-6,2.4-8.7,4.1
		c-2.5,1.6-4.8,3.4-6.6,5.6c-1.8,2.1-3,4.5-4.2,6.9c-1.1,2.2-2.3,4.4-2.8,6.9c-0.8,3.7-0.4,7.6-0.4,11.4c0,4.1,0.2,8.2,0.6,12.3
		c0.4,4.2,1.1,7.8,1.3,12c0,0.9,0,2.3-0.4,3.1c-0.3,0.6-0.4,0.7-0.6,1.4c-0.2,0.6,0.1,1.2,0.4,1.8c0.6,1.3,1.6,2.5,2.6,3.5
		c0.5,0.5,1.3,0.7,1.9,1.2c0.8,0.7,1.3,1.7,2.1,2.5c1.7,1.6,3.5,3,5.7,4c3,1.4,6.3,2.1,9.6,2.8c3.5,0.7,7.2,1.1,10.8,1.4
		c2.5,0.2,4.6,0.4,7.5,0.2c2.1,0,1.7,0,3.6-0.1c-1.5-4.1-2.4-8.5-2.4-13.1c0-22,19.1-39.8,42.7-39.8c23.6,0,42.7,17.8,42.7,39.8
		c0,4.1-0.7,8-1.9,11.7c1.3,0,1.1,0,2.5,0c93.7-1.1,142.1-2.5,213.2-3.5c1.2,0,2.5-0.1,3.7-0.1c-0.7-2.9-1.1-6-1.1-9.1
		c0-22,19.1-39.8,42.7-39.8c23.6,0,42.7,17.8,42.7,39.8c0,1.4-0.1,2.7-0.2,4.1c1.3-0.2,2.5-0.6,3.7-1.1c2.5-1,4.7-2.6,6.8-4.2
		c2.3-1.7,4.3-3.7,6.2-5.8c1.2-1.3,2.7-2.6,3.2-4.2c0.6-2.1-0.4-1.6-0.6-6.5c-0.2-7.7,0-15.5-0.6-23.2c-0.2-3.1-0.3-6.6-1.1-9.2
		c-0.3-0.9-1.2-1.8-1.9-2.5c-0.6-0.7-1.8-0.8-1.9-1.7c-0.4-3.3-0.4-6.8-0.6-10.2c-0.1-2.2,0-4.4-0.2-6.6c0,0.1-0.1,0.3-0.1,0.4
		c-0.2,0.7-1.1,1.1-1.5,1.8c-0.4,0.7-0.6,1.5-0.8,2.3c-0.3,1.5-0.3,3.1-0.2,4.7c0.1,1.6,0.5,3.2,0.7,4.8c0.1,1,0.5,2.2,0.1,3.1
		c-0.3,0.7-1.1,1.2-1.9,1.5c-1.5,0.6-3.2,0.5-4.8,0.3c-1.6-0.2-3.3-0.7-4.7-1.5c-2.8-1.6-4.9-4.1-7.2-6.2
		c-3.8-3.6-7.6-7.1-10.8-11.1c-0.8-1-1.9-2-2.2-3.3c-0.2-1.1,0-2.3,0.7-3.3c1.3-1.7,3.8-2.4,5.9-3.3c2.4-1.1,5-2,7.6-2.6
		c1.9-0.4,3.9-0.5,5.9-0.5c1.9,0,3.8,0,5.7,0.4c1.7,0.4,3.4,1.1,4.6,2.2c0.2,0.2,0.3,0.3,0.5,0.5c-1.2-2.7-3-5-4.8-7.4
		c-0.3-0.1-4.3-1.5-6.5-2c-1.6-0.4-4.5-0.3-4.5-0.3s-3.8-5.2-5.9-7.6c-2.6-2.9-5.3-5.8-8.2-8.4c-3.2-2.9-6.5-5.6-10.1-8.1
		c-3.5-2.5-11-6.7-11-6.7l6.2-2.9c-0.9-0.9,0.3-3.4-0.6-4.5c-0.7-0.8-2-0.8-3.5-0.9c-4.1-0.1-8-0.3-12.2-0.6
		c-5.3-0.3-10.6-1.1-15.8-1.8c-5.2-0.6-10.4-1.6-15.7-2.1c-10.8-1.1-21.7-1.8-32.6-2.3c-11.9-0.5-23.9-0.4-35.9-0.7
		c-4.5-0.1-8.9-0.3-13.4-0.5C290.9,180,287,179.4,283,179.5L283,179.5z M314.1,189.4c0,0,8.7,0,13.1,0.2c6.3,0.2,12.6,0.7,18.9,1.2
		c6.4,0.5,12.9,1.1,19.2,1.9c4.6,0.6,9.5,1.4,13.9,2.3c1.1,0.2,2.5,0.8,2.6,1.8c0.2,6.2,0.3,12,0.4,18.1c0.1,6.4,0.1,19.3,0.1,19.3
		s-23.3,0.2-35,0.4c-12.7,0.2-38,0.9-38,0.9L314.1,189.4L314.1,189.4z M293.6,189.5c0,0-3,15.5-4.9,23.2c-2,8.1-6.8,24.1-6.8,24.1
		s-14,0.6-20.9,1c-12.9,0.9-25.8,2.2-38.7,3.5c-4.9,0.5-13.8,1.2-13.8,1.2s0-3.3-0.4-4.9c-0.5-1.6-2.4-4.3-2.4-4.3l7.4-27.9
		c0,0,8.4-3.4,12.7-4.8c6.7-2.1,13.5-3.8,20.4-5.3c6.9-1.5,13.9-2.9,21-3.9c5.5-0.8,11-1.2,16.6-1.6
		C286.9,189.8,293.6,189.5,293.6,189.5z M393.1,198.4c0,0,6.1,1.4,9.1,2.4c4.1,1.4,8.2,3,12,5.1c4.7,2.6,9.2,5.7,13.3,9.1
		c2.8,2.3,5.8,4.6,7.7,7.6c1.8,2.6,0.9,2.5-1.7,3.6c-5.4,2.3-11.3,3.2-17.1,4.5c-5.5,1.2-16.7,2.8-16.7,2.8L393.1,198.4L393.1,198.4
		z M208.7,207.3c-2,7.6-4.9,15.9-6.9,23.5c0,0-3.1-0.7-4.6-0.5c-1.3,0.1-3.7,0.8-5.4,1.7c-1.5,0.7-3.3,1.8-4.6,2.8
		c-1.4,1.1-3,3-3.7,4.6c-1,2.3,0,6.7,0,6.7s-3.7,0.3-6.1,0.6c-2.4,0.2-7.2,0.5-7.2,0.5s2.3-9,4-13.4c1.1-3,4-8.6,4-8.6
		s3.5-3.2,5.5-4.6c3.7-2.6,7.8-4.9,11.9-7C199.8,211.2,208.7,207.3,208.7,207.3L208.7,207.3z M86.9,249.3c0.7,0,1.3,0.1,1.9,0.4
		c0.6,0.3,1,1,0.9,1.6c-0.1,1-1.3,1.7-2.1,2.5c-2.6,2.5-5.8,4.4-8.7,6.5c-4.1,3-8,6.3-12.3,9c-1.9,1.2-3.8,2.4-5.9,3.1
		c-1.9,0.7-3.9,1-5.8,1.2c-3.7,0.5-7.4,0.8-11.1,0.7c-1.3,0-2.8,0.3-4-0.3c-0.7-0.4-0.8-1.5-1.3-2.1c-0.9-1-2-1.7-3-2.5
		c-0.6-0.4-1.8-0.4-1.9-1c-0.4-2,2.7-3.3,4.2-4.8c1.4-1.4,2.6-3.2,4.5-3.9c0.9-0.3,1.9,0.2,2.8,0c2.3-0.5,4.2-2.1,6.4-3
		c2.8-1.1,5.6-2,8.5-2.8c2.9-0.9,5.7-1.8,8.7-2.5c2.6-0.6,5.2-0.9,7.9-1.2c2.3-0.3,4.5-0.4,6.8-0.5
		C84.6,249.7,85.7,249.4,86.9,249.3L86.9,249.3z M416.4,283c-20.6,0-37.4,15.6-37.4,34.9s16.7,34.9,37.4,34.9
		c20.6,0,37.4-15.6,37.4-34.9S437,283,416.4,283z M114.6,284c-20.6,0-37.3,15.6-37.3,34.9s16.7,34.9,37.3,34.9s37.3-15.6,37.3-34.9
		S135.2,284,114.6,284z M416.4,292.5c15,0,27.2,11.4,27.2,25.4c0,14-12.2,25.4-27.2,25.4c-15,0-27.1-11.4-27.1-25.4
		C389.2,303.8,401.4,292.5,416.4,292.5z M114.6,293.5c15,0,27.1,11.4,27.1,25.4c0,14-12.1,25.4-27.1,25.4s-27.2-11.4-27.2-25.4
		C87.4,304.9,99.6,293.5,114.6,293.5z"/>
</g>
</svg>
